<svg width="132" height="18" viewBox="0 0 132 18" fill="none" xmlns="http://www.w3.org/2000/svg">
<path d="M14.752 5.666C14.56 6.362 14.2 6.908 13.672 7.304C13.144 7.688 12.478 7.928 11.674 8.024C12.25 8.072 12.682 8.24 12.97 8.528C13.258 8.816 13.402 9.194 13.402 9.662C13.402 9.842 13.372 10.064 13.312 10.328L13.114 11.21C13.09 11.33 13.078 11.414 13.078 11.462C13.078 11.618 13.114 11.738 13.186 11.822C13.258 11.894 13.36 11.93 13.492 11.93C13.744 11.93 13.924 11.966 14.032 12.038C14.152 12.11 14.194 12.242 14.158 12.434C14.11 12.71 13.966 12.98 13.726 13.244C13.486 13.508 13.144 13.73 12.7 13.91C12.268 14.078 11.74 14.162 11.116 14.162C10.324 14.162 9.694 13.988 9.226 13.64C8.758 13.28 8.524 12.77 8.524 12.11C8.524 11.858 8.56 11.588 8.632 11.3L8.92 10.148C8.968 9.992 8.992 9.83 8.992 9.662C8.992 9.386 8.896 9.188 8.704 9.068C8.524 8.948 8.23 8.888 7.822 8.888H7.138L6.31 11.876C6.286 11.948 6.274 12.038 6.274 12.146C6.274 12.314 6.316 12.458 6.4 12.578C6.484 12.698 6.598 12.824 6.742 12.956C6.85 13.04 6.934 13.124 6.994 13.208C7.054 13.28 7.084 13.358 7.084 13.442C7.084 13.646 6.988 13.79 6.796 13.874C6.604 13.958 6.322 14 5.95 14H1.432C1.12 14 0.886 13.946 0.73 13.838C0.574 13.718 0.52 13.556 0.568 13.352C0.592 13.244 0.64 13.16 0.712 13.1C0.772 13.028 0.868 12.95 1 12.866C1.204 12.746 1.366 12.62 1.486 12.488C1.606 12.356 1.702 12.152 1.774 11.876L3.97 4.118C4.018 3.962 4.042 3.812 4.042 3.668C4.042 3.536 4.018 3.428 3.97 3.344C3.934 3.248 3.88 3.14 3.808 3.02C3.7 2.864 3.646 2.738 3.646 2.642C3.646 2.606 3.658 2.54 3.682 2.444C3.73 2.288 3.832 2.18 3.988 2.12C4.156 2.048 4.408 2.012 4.744 2.012H10.774C11.602 2.012 12.322 2.138 12.934 2.39C13.558 2.642 14.032 2.99 14.356 3.434C14.692 3.866 14.86 4.358 14.86 4.91C14.86 5.162 14.824 5.414 14.752 5.666ZM10.144 5.486C10.204 5.21 10.234 5 10.234 4.856C10.234 4.22 9.886 3.902 9.19 3.902H8.434L7.642 7.088H8.398C8.866 7.088 9.232 6.974 9.496 6.746C9.772 6.518 9.988 6.098 10.144 5.486ZM19.3922 4.478C20.0882 4.478 20.5982 4.61 20.9222 4.874C21.2462 5.138 21.4082 5.498 21.4082 5.954C21.4082 6.23 21.3662 6.494 21.2822 6.746L19.6262 12.128C19.5902 12.272 19.5722 12.398 19.5722 12.506C19.5722 12.662 19.6022 12.788 19.6622 12.884C19.7222 12.968 19.8062 13.052 19.9142 13.136C19.9982 13.22 20.0582 13.292 20.0942 13.352C20.1302 13.4 20.1362 13.466 20.1122 13.55C20.0522 13.706 19.9322 13.82 19.7522 13.892C19.5722 13.964 19.2962 14 18.9242 14H14.8202C14.5082 14 14.2802 13.952 14.1362 13.856C13.9922 13.748 13.9442 13.61 13.9922 13.442C14.0402 13.298 14.1662 13.172 14.3702 13.064C14.5502 12.968 14.7002 12.854 14.8202 12.722C14.9402 12.59 15.0422 12.38 15.1262 12.092L16.6922 6.89C16.7282 6.782 16.7462 6.692 16.7462 6.62C16.7462 6.488 16.7162 6.386 16.6562 6.314C16.5962 6.23 16.5062 6.146 16.3862 6.062C16.2662 5.966 16.1822 5.882 16.1342 5.81C16.0862 5.738 16.0802 5.642 16.1162 5.522C16.1882 5.246 16.5662 5.006 17.2502 4.802C17.9342 4.586 18.6482 4.478 19.3922 4.478ZM20.5982 0.499999C21.0662 0.499999 21.4562 0.655999 21.7682 0.967999C22.0802 1.268 22.2362 1.64 22.2362 2.084C22.2362 2.396 22.1522 2.702 21.9842 3.002C21.8282 3.302 21.6002 3.548 21.3002 3.74C21.0122 3.92 20.6882 4.01 20.3282 4.01C19.8722 4.01 19.4882 3.86 19.1762 3.56C18.8762 3.248 18.7202 2.864 18.7082 2.408C18.7082 2.108 18.7862 1.814 18.9422 1.526C19.0982 1.226 19.3202 0.979999 19.6082 0.788C19.8962 0.595999 20.2262 0.499999 20.5982 0.499999ZM30.664 4.406C31.588 4.406 32.314 4.712 32.842 5.324C33.37 5.936 33.634 6.77 33.634 7.826C33.634 8.39 33.556 8.984 33.4 9.608C33.04 11.096 32.368 12.23 31.384 13.01C30.4 13.778 29.26 14.162 27.964 14.162C27.136 14.162 26.416 13.988 25.804 13.64L25.228 15.566C25.18 15.698 25.156 15.824 25.156 15.944C25.156 16.076 25.186 16.184 25.246 16.268C25.306 16.364 25.384 16.454 25.48 16.538C25.576 16.634 25.636 16.712 25.66 16.772C25.696 16.832 25.702 16.904 25.678 16.988C25.63 17.144 25.516 17.252 25.336 17.312C25.156 17.384 24.88 17.42 24.508 17.42H20.386C20.074 17.42 19.852 17.366 19.72 17.258C19.576 17.162 19.534 17.036 19.594 16.88C19.618 16.784 19.66 16.706 19.72 16.646C19.78 16.586 19.864 16.532 19.972 16.484C20.152 16.364 20.296 16.238 20.404 16.106C20.512 15.986 20.608 15.788 20.692 15.512L23.32 6.89C23.356 6.782 23.374 6.692 23.374 6.62C23.374 6.488 23.344 6.386 23.284 6.314C23.224 6.23 23.134 6.146 23.014 6.062C22.894 5.966 22.81 5.882 22.762 5.81C22.714 5.738 22.708 5.642 22.744 5.522C22.816 5.246 23.194 5.006 23.878 4.802C24.562 4.586 25.276 4.478 26.02 4.478C26.548 4.478 26.98 4.61 27.316 4.874C27.664 5.138 27.862 5.504 27.91 5.972C28.726 4.928 29.644 4.406 30.664 4.406ZM28.576 9.752C28.864 8.684 29.008 7.946 29.008 7.538C29.008 7.286 28.966 7.124 28.882 7.052C28.81 6.968 28.702 6.926 28.558 6.926C28.45 6.926 28.312 6.98 28.144 7.088C27.976 7.184 27.808 7.352 27.64 7.592L26.218 12.308C26.362 12.452 26.536 12.524 26.74 12.524C27.064 12.524 27.37 12.344 27.658 11.984C27.958 11.612 28.264 10.868 28.576 9.752ZM43.1093 4.406C44.0333 4.406 44.7593 4.712 45.2873 5.324C45.8153 5.936 46.0793 6.77 46.0793 7.826C46.0793 8.39 46.0013 8.984 45.8453 9.608C45.4853 11.096 44.8133 12.23 43.8293 13.01C42.8453 13.778 41.7053 14.162 40.4093 14.162C39.5813 14.162 38.8613 13.988 38.2493 13.64L37.6733 15.566C37.6253 15.698 37.6013 15.824 37.6013 15.944C37.6013 16.076 37.6313 16.184 37.6913 16.268C37.7513 16.364 37.8293 16.454 37.9253 16.538C38.0213 16.634 38.0813 16.712 38.1053 16.772C38.1413 16.832 38.1473 16.904 38.1233 16.988C38.0753 17.144 37.9613 17.252 37.7813 17.312C37.6013 17.384 37.3253 17.42 36.9533 17.42H32.8313C32.5193 17.42 32.2973 17.366 32.1653 17.258C32.0213 17.162 31.9793 17.036 32.0393 16.88C32.0633 16.784 32.1053 16.706 32.1653 16.646C32.2253 16.586 32.3093 16.532 32.4173 16.484C32.5973 16.364 32.7413 16.238 32.8493 16.106C32.9573 15.986 33.0533 15.788 33.1373 15.512L35.7653 6.89C35.8013 6.782 35.8193 6.692 35.8193 6.62C35.8193 6.488 35.7893 6.386 35.7293 6.314C35.6693 6.23 35.5793 6.146 35.4593 6.062C35.3393 5.966 35.2553 5.882 35.2073 5.81C35.1593 5.738 35.1533 5.642 35.1893 5.522C35.2613 5.246 35.6393 5.006 36.3233 4.802C37.0073 4.586 37.7213 4.478 38.4653 4.478C38.9933 4.478 39.4253 4.61 39.7613 4.874C40.1093 5.138 40.3073 5.504 40.3553 5.972C41.1713 4.928 42.0893 4.406 43.1093 4.406ZM41.0213 9.752C41.3093 8.684 41.4533 7.946 41.4533 7.538C41.4533 7.286 41.4113 7.124 41.3273 7.052C41.2553 6.968 41.1473 6.926 41.0033 6.926C40.8953 6.926 40.7573 6.98 40.5893 7.088C40.4213 7.184 40.2533 7.352 40.0853 7.592L38.6633 12.308C38.8073 12.452 38.9813 12.524 39.1853 12.524C39.5093 12.524 39.8153 12.344 40.1033 11.984C40.4033 11.612 40.7093 10.868 41.0213 9.752ZM51.8826 0.698C52.5786 0.698 53.0886 0.83 53.4126 1.094C53.7486 1.358 53.9166 1.718 53.9166 2.174C53.9166 2.438 53.8746 2.696 53.7906 2.948L50.9646 12.128C50.9286 12.272 50.9106 12.398 50.9106 12.506C50.9106 12.662 50.9406 12.788 51.0006 12.884C51.0606 12.968 51.1446 13.052 51.2526 13.136C51.3366 13.22 51.3966 13.292 51.4326 13.352C51.4686 13.4 51.4746 13.466 51.4506 13.55C51.3906 13.706 51.2706 13.82 51.0906 13.892C50.9106 13.964 50.6346 14 50.2626 14H46.1586C45.8466 14 45.6186 13.952 45.4746 13.856C45.3306 13.748 45.2826 13.61 45.3306 13.442C45.3786 13.298 45.5046 13.172 45.7086 13.064C45.8886 12.968 46.0386 12.854 46.1586 12.722C46.2786 12.59 46.3806 12.38 46.4646 12.092L49.2006 3.11C49.2366 3.002 49.2546 2.912 49.2546 2.84C49.2546 2.708 49.2186 2.6 49.1466 2.516C49.0866 2.432 49.0026 2.348 48.8946 2.264C48.7746 2.168 48.6846 2.084 48.6246 2.012C48.5766 1.94 48.5706 1.844 48.6066 1.724C48.6786 1.448 49.0566 1.208 49.7406 1.004C50.4246 0.799999 51.1386 0.698 51.8826 0.698ZM58.8344 4.388C60.3584 4.388 61.4624 4.634 62.1464 5.126C62.8304 5.606 63.1724 6.224 63.1724 6.98C63.1724 7.208 63.1484 7.418 63.1004 7.61C62.9204 8.402 62.4164 8.972 61.5884 9.32C60.7724 9.656 59.8064 9.824 58.6904 9.824C58.1264 9.824 57.5984 9.788 57.1064 9.716C57.0944 10.34 57.2624 10.778 57.6104 11.03C57.9584 11.282 58.4444 11.408 59.0684 11.408C59.3564 11.408 59.6324 11.378 59.8964 11.318C60.1604 11.246 60.4964 11.144 60.9044 11.012C61.2404 10.892 61.4684 10.832 61.5884 10.832C61.7204 10.832 61.7864 10.91 61.7864 11.066C61.7984 11.486 61.6424 11.93 61.3184 12.398C60.9944 12.854 60.5144 13.244 59.8784 13.568C59.2424 13.892 58.4744 14.054 57.5744 14.054C56.2424 14.054 55.1504 13.718 54.2984 13.046C53.4464 12.374 53.0204 11.396 53.0204 10.112C53.0204 9.752 53.0684 9.332 53.1644 8.852C53.4644 7.376 54.1184 6.266 55.1264 5.522C56.1464 4.766 57.3824 4.388 58.8344 4.388ZM57.2324 8.636C57.2804 8.648 57.3464 8.654 57.4304 8.654C57.9344 8.654 58.3184 8.42 58.5824 7.952C58.8464 7.484 58.9724 6.962 58.9604 6.386C58.9484 6.05 58.8524 5.882 58.6724 5.882C58.5404 5.882 58.3844 5.99 58.2044 6.206C58.0244 6.41 57.8444 6.722 57.6644 7.142C57.4964 7.562 57.3524 8.06 57.2324 8.636ZM82.1402 2.012C82.3922 2.012 82.5842 2.054 82.7162 2.138C82.8602 2.222 82.9322 2.33 82.9322 2.462C82.9322 2.522 82.9142 2.6 82.8782 2.696C82.8422 2.78 82.7882 2.858 82.7162 2.93C82.6562 2.99 82.5962 3.038 82.5362 3.074C82.4882 3.098 82.4522 3.122 82.4282 3.146C82.2362 3.254 82.0802 3.374 81.9602 3.506C81.8402 3.638 81.7382 3.842 81.6542 4.118L79.4402 11.876C79.3922 12.032 79.3682 12.182 79.3682 12.326C79.3682 12.47 79.3862 12.584 79.4222 12.668C79.4702 12.752 79.5362 12.86 79.6202 12.992C79.6322 13.004 79.6622 13.052 79.7102 13.136C79.7702 13.208 79.8002 13.286 79.8002 13.37C79.8002 13.394 79.7882 13.454 79.7642 13.55C79.7042 13.718 79.5902 13.838 79.4222 13.91C79.2542 13.97 79.0022 14 78.6662 14H74.4362C74.1842 14 73.9862 13.958 73.8422 13.874C73.7102 13.79 73.6442 13.676 73.6442 13.532C73.6442 13.46 73.6622 13.382 73.6982 13.298C73.7462 13.202 73.8122 13.124 73.8962 13.064C73.9802 12.992 74.0642 12.932 74.1482 12.884C74.3402 12.776 74.4962 12.656 74.6162 12.524C74.7362 12.38 74.8382 12.164 74.9222 11.876L75.7862 8.87H72.6002L71.7362 11.876C71.6882 12.032 71.6642 12.182 71.6642 12.326C71.6642 12.47 71.6822 12.584 71.7182 12.668C71.7662 12.752 71.8322 12.86 71.9162 12.992C71.9282 13.004 71.9582 13.052 72.0062 13.136C72.0662 13.208 72.0962 13.286 72.0962 13.37C72.0962 13.394 72.0842 13.454 72.0602 13.55C72.0002 13.718 71.8862 13.838 71.7182 13.91C71.5502 13.97 71.2982 14 70.9622 14H66.7322C66.4802 14 66.2882 13.958 66.1562 13.874C66.0122 13.79 65.9402 13.676 65.9402 13.532C65.9402 13.46 65.9582 13.382 65.9942 13.298C66.0422 13.202 66.1082 13.124 66.1922 13.064C66.2762 12.992 66.3602 12.932 66.4442 12.884C66.6362 12.776 66.7922 12.656 66.9122 12.524C67.0322 12.38 67.1342 12.164 67.2182 11.876L69.4322 4.118C69.4802 3.962 69.5042 3.812 69.5042 3.668C69.5042 3.536 69.4802 3.428 69.4322 3.344C69.3962 3.248 69.3422 3.14 69.2702 3.02C69.2222 2.96 69.1802 2.9 69.1442 2.84C69.1082 2.768 69.0902 2.696 69.0902 2.624C69.0902 2.6 69.1022 2.54 69.1262 2.444C69.1742 2.288 69.2822 2.18 69.4502 2.12C69.6182 2.048 69.8702 2.012 70.2062 2.012H74.4362C74.6882 2.012 74.8802 2.054 75.0122 2.138C75.1562 2.222 75.2282 2.33 75.2282 2.462C75.2282 2.522 75.2102 2.6 75.1742 2.696C75.1382 2.78 75.0842 2.858 75.0122 2.93C74.9522 2.99 74.8922 3.038 74.8322 3.074C74.7842 3.098 74.7482 3.122 74.7242 3.146C74.5322 3.254 74.3762 3.374 74.2562 3.506C74.1362 3.638 74.0342 3.842 73.9502 4.118L73.1042 7.07H76.2902L77.1362 4.118C77.1842 3.962 77.2082 3.812 77.2082 3.668C77.2082 3.536 77.1842 3.428 77.1362 3.344C77.1002 3.248 77.0462 3.14 76.9742 3.02C76.9262 2.96 76.8842 2.9 76.8482 2.84C76.8122 2.768 76.7942 2.696 76.7942 2.624C76.7942 2.6 76.8062 2.54 76.8302 2.444C76.8782 2.288 76.9862 2.18 77.1542 2.12C77.3222 2.048 77.5742 2.012 77.9102 2.012H82.1402ZM92.1119 11.516C92.0879 11.612 92.0759 11.684 92.0759 11.732C92.0759 11.816 92.0939 11.882 92.1299 11.93C92.1779 11.978 92.2379 12.002 92.3099 12.002C92.4539 12.002 92.5739 11.942 92.6699 11.822C92.7779 11.69 92.8499 11.624 92.8859 11.624C92.9459 11.624 92.9939 11.666 93.0299 11.75C93.0779 11.822 93.1019 11.912 93.1019 12.02C93.1139 12.356 92.9939 12.692 92.7419 13.028C92.4899 13.352 92.1359 13.622 91.6799 13.838C91.2239 14.054 90.7139 14.162 90.1499 14.162C89.4419 14.162 88.8779 14.018 88.4579 13.73C88.0379 13.442 87.7679 13.064 87.6479 12.596C87.2159 13.076 86.7359 13.442 86.2079 13.694C85.6919 13.934 85.1639 14.054 84.6239 14.054C83.7839 14.054 83.0759 13.85 82.4999 13.442C81.9359 13.022 81.6539 12.44 81.6539 11.696C81.6539 11.36 81.7139 11.012 81.8339 10.652L82.9859 6.89C83.0219 6.782 83.0399 6.692 83.0399 6.62C83.0399 6.488 83.0099 6.386 82.9499 6.314C82.8899 6.23 82.7999 6.146 82.6799 6.062C82.5599 5.966 82.4759 5.882 82.4279 5.81C82.3799 5.738 82.3739 5.642 82.4099 5.522C82.4819 5.246 82.8599 5.006 83.5439 4.802C84.2279 4.586 84.9419 4.478 85.6859 4.478C86.3819 4.478 86.8919 4.61 87.2159 4.874C87.5399 5.138 87.7019 5.498 87.7019 5.954C87.7019 6.23 87.6599 6.494 87.5759 6.746L86.4419 10.49C86.3939 10.622 86.3699 10.748 86.3699 10.868C86.3699 11.036 86.4179 11.162 86.5139 11.246C86.6099 11.33 86.7359 11.372 86.8919 11.372C87.1199 11.372 87.3059 11.306 87.4499 11.174C87.5939 11.042 87.7379 10.82 87.8819 10.508L88.9799 6.89C89.0159 6.782 89.0339 6.692 89.0339 6.62C89.0339 6.488 89.0039 6.386 88.9439 6.314C88.8839 6.23 88.7999 6.146 88.6919 6.062C88.5719 5.966 88.4879 5.882 88.4399 5.81C88.3919 5.738 88.3859 5.642 88.4219 5.522C88.4819 5.246 88.8539 5.006 89.5379 4.802C90.2219 4.586 90.9359 4.478 91.6799 4.478C92.3759 4.478 92.8859 4.61 93.2099 4.874C93.5459 5.138 93.7139 5.492 93.7139 5.936C93.7139 6.164 93.6659 6.434 93.5699 6.746L92.1119 11.516ZM100.186 4.478C101.566 4.478 102.67 4.736 103.498 5.252C104.326 5.756 104.74 6.53 104.74 7.574C104.74 7.97 104.668 8.42 104.524 8.924L103.786 11.408C103.774 11.456 103.768 11.516 103.768 11.588C103.768 11.78 103.846 11.876 104.002 11.876C104.146 11.876 104.266 11.816 104.362 11.696C104.47 11.564 104.542 11.498 104.578 11.498C104.638 11.498 104.686 11.54 104.722 11.624C104.77 11.708 104.794 11.804 104.794 11.912C104.806 12.236 104.68 12.566 104.416 12.902C104.164 13.238 103.822 13.514 103.39 13.73C102.958 13.946 102.484 14.054 101.968 14.054C101.344 14.054 100.81 13.94 100.366 13.712C99.9218 13.484 99.6158 13.148 99.4478 12.704C99.0878 13.136 98.6618 13.472 98.1698 13.712C97.6778 13.94 97.1498 14.054 96.5858 14.054C95.9498 14.054 95.4158 13.934 94.9838 13.694C94.5518 13.442 94.2278 13.124 94.0118 12.74C93.8078 12.344 93.7058 11.93 93.7058 11.498C93.7058 11.306 93.7238 11.12 93.7598 10.94C93.9518 10.112 94.3658 9.488 95.0018 9.068C95.6498 8.648 96.4178 8.438 97.3058 8.438C98.3018 8.438 99.2798 8.594 100.24 8.906L100.69 7.718C100.846 7.214 100.924 6.824 100.924 6.548C100.912 6.26 100.816 6.044 100.636 5.9C100.456 5.756 100.18 5.684 99.8078 5.684C99.8798 5.876 99.9158 6.074 99.9158 6.278C99.9158 6.722 99.7478 7.106 99.4118 7.43C99.0758 7.754 98.5958 7.916 97.9718 7.916C97.3838 7.916 96.9218 7.79 96.5858 7.538C96.2618 7.274 96.0998 6.95 96.0998 6.566C96.0998 5.966 96.4358 5.468 97.1078 5.072C97.7798 4.676 98.8058 4.478 100.186 4.478ZM99.1778 9.932C98.8418 9.932 98.5658 10.064 98.3498 10.328C98.1458 10.58 98.0438 10.856 98.0438 11.156C98.0438 11.348 98.0858 11.504 98.1698 11.624C98.2658 11.744 98.3978 11.804 98.5658 11.804C98.7218 11.804 98.8898 11.744 99.0698 11.624C99.2618 11.492 99.3998 11.3 99.4838 11.048L99.8618 9.986C99.6578 9.95 99.4298 9.932 99.1778 9.932ZM116.679 11.516C116.655 11.564 116.643 11.636 116.643 11.732C116.643 11.816 116.661 11.882 116.697 11.93C116.745 11.978 116.805 12.002 116.877 12.002C117.021 12.002 117.141 11.942 117.237 11.822C117.345 11.69 117.417 11.624 117.453 11.624C117.513 11.624 117.561 11.666 117.597 11.75C117.633 11.822 117.651 11.912 117.651 12.02C117.663 12.368 117.549 12.71 117.309 13.046C117.069 13.37 116.715 13.64 116.247 13.856C115.791 14.06 115.239 14.162 114.591 14.162C113.799 14.162 113.169 13.982 112.701 13.622C112.233 13.25 111.993 12.758 111.981 12.146C111.981 11.702 112.089 11.204 112.305 10.652L113.295 8.06C113.355 7.904 113.385 7.778 113.385 7.682C113.385 7.526 113.331 7.406 113.223 7.322C113.127 7.226 113.007 7.178 112.863 7.178C112.599 7.178 112.347 7.304 112.107 7.556C111.867 7.796 111.693 8.096 111.585 8.456L110.469 12.128C110.421 12.26 110.397 12.386 110.397 12.506C110.397 12.65 110.427 12.77 110.487 12.866C110.547 12.95 110.631 13.04 110.739 13.136C110.823 13.208 110.883 13.274 110.919 13.334C110.955 13.394 110.961 13.466 110.937 13.55C110.889 13.706 110.775 13.82 110.595 13.892C110.415 13.964 110.133 14 109.749 14H105.645C105.333 14 105.111 13.952 104.979 13.856C104.835 13.748 104.781 13.61 104.817 13.442C104.865 13.298 104.991 13.172 105.195 13.064C105.375 12.968 105.525 12.854 105.645 12.722C105.765 12.59 105.867 12.38 105.951 12.092L107.553 6.89C107.577 6.83 107.589 6.746 107.589 6.638C107.589 6.506 107.559 6.404 107.499 6.332C107.451 6.26 107.367 6.17 107.247 6.062C107.127 5.966 107.043 5.882 106.995 5.81C106.947 5.738 106.941 5.642 106.977 5.522C107.049 5.246 107.427 5.006 108.111 4.802C108.795 4.586 109.509 4.478 110.253 4.478C110.853 4.478 111.327 4.646 111.675 4.982C112.023 5.306 112.179 5.762 112.143 6.35C112.635 5.642 113.157 5.156 113.709 4.892C114.261 4.616 114.861 4.478 115.509 4.478C116.241 4.478 116.829 4.7 117.273 5.144C117.729 5.588 117.957 6.164 117.957 6.872C117.957 7.244 117.897 7.61 117.777 7.97L116.679 11.516ZM129.33 1.544C129.714 1.544 130.086 1.628 130.446 1.796C130.818 1.952 131.118 2.174 131.346 2.462C131.586 2.738 131.706 3.038 131.706 3.362C131.706 4.07 131.226 4.424 130.266 4.424C129.99 4.424 129.774 4.406 129.618 4.37C129.474 4.322 129.3 4.25 129.096 4.154C129.06 4.238 129.042 4.358 129.042 4.514C129.042 4.706 129.072 4.934 129.132 5.198C129.204 5.462 129.288 5.708 129.384 5.936C129.636 6.308 129.762 6.752 129.762 7.268C129.762 7.496 129.732 7.772 129.672 8.096C129.528 8.72 129.21 9.29 128.718 9.806C128.238 10.322 127.614 10.73 126.846 11.03C126.09 11.318 125.256 11.462 124.344 11.462C123.648 11.462 122.994 11.414 122.382 11.318C122.202 11.474 122.112 11.666 122.112 11.894C122.112 12.05 122.184 12.182 122.328 12.29C122.472 12.386 122.712 12.434 123.048 12.434H125.748C126.672 12.434 127.392 12.596 127.908 12.92C128.424 13.232 128.682 13.682 128.682 14.27C128.682 14.486 128.646 14.708 128.574 14.936C128.43 15.404 128.1 15.836 127.584 16.232C127.08 16.64 126.366 16.97 125.442 17.222C124.518 17.474 123.396 17.6 122.076 17.6C120.9 17.6 119.904 17.498 119.088 17.294C118.272 17.09 117.666 16.808 117.27 16.448C116.862 16.1 116.658 15.71 116.658 15.278C116.658 15.182 116.682 15.038 116.73 14.846C116.838 14.498 117.084 14.216 117.468 14C117.84 13.772 118.458 13.622 119.322 13.55C119.034 13.274 118.89 12.944 118.89 12.56C118.89 12.428 118.908 12.29 118.944 12.146C119.136 11.522 119.7 11.06 120.636 10.76C119.736 10.268 119.286 9.548 119.286 8.6C119.286 8.336 119.322 8.06 119.394 7.772C119.538 7.148 119.856 6.584 120.348 6.08C120.84 5.564 121.47 5.156 122.238 4.856C123.006 4.556 123.846 4.406 124.758 4.406C126.186 4.406 127.308 4.592 128.124 4.964C127.944 4.688 127.8 4.394 127.692 4.082C127.596 3.758 127.548 3.464 127.548 3.2C127.548 2.744 127.692 2.354 127.98 2.03C128.28 1.706 128.73 1.544 129.33 1.544ZM125.424 7.934C125.616 7.322 125.712 6.854 125.712 6.53C125.712 6.122 125.538 5.918 125.19 5.918C124.89 5.918 124.626 6.068 124.398 6.368C124.182 6.656 123.96 7.178 123.732 7.934C123.54 8.558 123.444 9.032 123.444 9.356C123.444 9.752 123.612 9.95 123.948 9.95C124.248 9.95 124.512 9.8 124.74 9.5C124.968 9.2 125.196 8.678 125.424 7.934ZM121.842 14.252C121.506 14.252 121.2 14.234 120.924 14.198C120.78 14.378 120.708 14.618 120.708 14.918C120.72 15.218 120.84 15.434 121.068 15.566C121.308 15.698 121.674 15.764 122.166 15.764C122.766 15.764 123.252 15.674 123.624 15.494C124.008 15.314 124.2 15.056 124.2 14.72C124.2 14.576 124.146 14.462 124.038 14.378C123.93 14.294 123.774 14.252 123.57 14.252H121.842Z" fill="#534F4B"/>
</svg>
