<svg width="18" height="23" viewBox="0 0 18 23" fill="none" xmlns="http://www.w3.org/2000/svg">
<path d="M8.506 5C9.874 5 10.846 5.3 11.422 5.9C11.854 6.356 12.07 6.932 12.07 7.628C12.07 7.868 12.046 8.12 11.998 8.384L11.746 9.788C11.602 10.568 11.35 11.198 10.99 11.678C10.642 12.158 10.252 12.5 9.82 12.704L11.458 17.96H7.822L6.31 13.118H5.194L4.456 17.96H1L3.286 5H8.506ZM7.372 7.808H6.022L5.554 10.94H6.814C7.45 10.94 7.906 10.79 8.182 10.49C8.458 10.178 8.596 9.77 8.596 9.266C8.596 8.294 8.188 7.808 7.372 7.808Z" fill="#534F4B"/>
<path d="M12.5605 16.916C12.5605 16.148 12.7285 15.59 13.0645 15.242C13.4005 14.882 13.9345 14.702 14.6665 14.702C15.6745 14.702 16.1785 15.146 16.1785 16.034C16.1785 16.79 16.0045 17.342 15.6565 17.69C15.3205 18.038 14.7865 18.212 14.0545 18.212C13.0585 18.212 12.5605 17.78 12.5605 16.916Z" fill="#534F4B"/>
</svg>
