<svg width="114" height="20" viewBox="0 0 114 20" fill="none" xmlns="http://www.w3.org/2000/svg">
<path d="M7.848 1.04C9.216 1.04 10.188 1.34 10.764 1.94C11.196 2.396 11.412 2.972 11.412 3.668C11.412 3.908 11.388 4.16 11.34 4.424L11.088 5.828C10.944 6.608 10.692 7.238 10.332 7.718C9.984 8.198 9.594 8.54 9.162 8.744L10.8 14H7.164L5.652 9.158H4.536L3.798 14H0.342L2.628 1.04H7.848ZM6.714 3.848H5.364L4.896 6.98H6.156C6.792 6.98 7.248 6.83 7.524 6.53C7.8 6.218 7.938 5.81 7.938 5.306C7.938 4.334 7.53 3.848 6.714 3.848ZM16.0065 11.696C16.2825 11.696 16.5285 11.636 16.7445 11.516L16.6545 13.55C16.0905 14.018 15.4485 14.252 14.7285 14.252C13.6365 14.252 12.9285 14 12.6045 13.496C12.3885 13.16 12.2805 12.806 12.2805 12.434C12.2805 12.05 12.3045 11.714 12.3525 11.426L13.4325 5.342H16.4925L15.4845 11.012C15.4725 11.084 15.4665 11.15 15.4665 11.21C15.4665 11.534 15.6465 11.696 16.0065 11.696ZM13.7925 2.408C13.7925 1.64 13.9605 1.082 14.2965 0.733999C14.6445 0.373999 15.1785 0.194 15.8985 0.194C16.9065 0.194 17.4105 0.638 17.4105 1.526C17.4105 2.282 17.2365 2.834 16.8885 3.182C16.5525 3.53 16.0185 3.704 15.2865 3.704C14.2905 3.704 13.7925 3.272 13.7925 2.408ZM24.0971 5.108C25.3211 5.108 26.1671 5.432 26.6351 6.08C26.9711 6.524 27.1391 7.088 27.1391 7.772C27.1391 8.048 27.1091 8.342 27.0491 8.654L26.6891 10.76C26.4851 11.9 26.0471 12.77 25.3751 13.37C24.7031 13.958 23.8631 14.252 22.8551 14.252C21.8471 14.252 21.1451 13.982 20.7491 13.442L19.7771 19.004H16.7171L19.1291 5.342H21.9011L21.8111 5.828C22.3751 5.348 23.1371 5.108 24.0971 5.108ZM22.2251 11.66C22.5611 11.66 22.8731 11.552 23.1611 11.336C23.4491 11.12 23.6291 10.796 23.7011 10.364L23.9351 9.014C23.9591 8.894 23.9711 8.744 23.9711 8.564C23.9711 8.384 23.8931 8.192 23.7371 7.988C23.5811 7.784 23.3111 7.682 22.9271 7.682C22.3031 7.682 21.8951 7.832 21.7031 8.132L21.1631 11.156C21.3311 11.492 21.6851 11.66 22.2251 11.66ZM34.4682 5.108C35.6922 5.108 36.5382 5.432 37.0062 6.08C37.3422 6.524 37.5102 7.088 37.5102 7.772C37.5102 8.048 37.4802 8.342 37.4202 8.654L37.0602 10.76C36.8562 11.9 36.4182 12.77 35.7462 13.37C35.0742 13.958 34.2342 14.252 33.2262 14.252C32.2182 14.252 31.5162 13.982 31.1202 13.442L30.1482 19.004H27.0882L29.5002 5.342H32.2722L32.1822 5.828C32.7462 5.348 33.5082 5.108 34.4682 5.108ZM32.5962 11.66C32.9322 11.66 33.2442 11.552 33.5322 11.336C33.8202 11.12 34.0002 10.796 34.0722 10.364L34.3062 9.014C34.3302 8.894 34.3422 8.744 34.3422 8.564C34.3422 8.384 34.2642 8.192 34.1082 7.988C33.9522 7.784 33.6822 7.682 33.2982 7.682C32.6742 7.682 32.2662 7.832 32.0742 8.132L31.5342 11.156C31.7022 11.492 32.0562 11.66 32.5962 11.66ZM41.9413 11.228C41.9413 11.54 42.0973 11.696 42.4093 11.696C42.7333 11.696 43.0033 11.636 43.2193 11.516L43.1293 13.55C42.5533 14.018 41.9053 14.252 41.1853 14.252C40.0933 14.252 39.3853 14 39.0613 13.496C38.8573 13.172 38.7553 12.818 38.7553 12.434C38.7553 12.05 38.7793 11.714 38.8273 11.426L40.7893 0.337999H43.8493L41.9593 11.012C41.9473 11.084 41.9413 11.156 41.9413 11.228ZM47.9773 14.252C45.4813 14.252 44.2333 13.388 44.2333 11.66C44.2333 11.42 44.2573 11.162 44.3053 10.886L44.6833 8.654C44.8873 7.502 45.4153 6.62 46.2673 6.008C47.1313 5.384 48.2713 5.072 49.6873 5.072C52.0993 5.072 53.3053 5.984 53.3053 7.808C53.3053 8.072 53.2813 8.36 53.2333 8.672L53.0173 9.95H47.5273L47.4553 10.364C47.4313 10.508 47.4193 10.64 47.4193 10.76C47.4193 11.42 47.8093 11.75 48.5893 11.75C48.8773 11.75 49.1233 11.66 49.3273 11.48C49.5313 11.3 49.6513 11.09 49.6873 10.85L52.6753 10.886C52.2793 13.13 50.7133 14.252 47.9773 14.252ZM50.1373 8.852C50.1853 8.648 50.2093 8.462 50.2093 8.294C50.2093 8.114 50.1313 7.934 49.9753 7.754C49.8193 7.574 49.5673 7.484 49.2193 7.484C48.8833 7.484 48.5713 7.598 48.2833 7.826C48.0073 8.054 47.8153 8.396 47.7073 8.852H50.1373ZM70.8192 1.04L68.5512 14H65.2932L66.1212 9.32H62.6112L61.8012 14H58.5432L60.8292 1.04H64.0692L63.0972 6.512H66.6072L67.5792 1.04H70.8192ZM79.824 11.228C79.824 11.54 79.98 11.696 80.292 11.696C80.616 11.696 80.886 11.636 81.102 11.516L81.012 13.55C80.436 14.018 79.788 14.252 79.068 14.252C77.712 14.252 76.974 13.73 76.854 12.686C76.134 13.73 75.162 14.252 73.938 14.252C72.726 14.252 71.94 13.976 71.58 13.424C71.34 13.076 71.22 12.68 71.22 12.236C71.22 11.792 71.256 11.384 71.328 11.012L72.336 5.342H75.396L74.55 10.13C74.514 10.346 74.496 10.562 74.496 10.778C74.496 11.354 74.82 11.642 75.468 11.642C76.008 11.642 76.44 11.456 76.764 11.084L77.79 5.342H80.85L79.842 11.012C79.83 11.084 79.824 11.156 79.824 11.228ZM90.6642 11.228C90.6642 11.54 90.8202 11.696 91.1322 11.696C91.4562 11.696 91.7262 11.636 91.9422 11.516L91.8522 13.55C91.2762 14.018 90.6282 14.252 89.9082 14.252C88.5882 14.252 87.8562 13.772 87.7122 12.812C87.1122 13.772 86.2302 14.252 85.0662 14.252C83.0982 14.252 82.1142 13.406 82.1142 11.714C82.1142 11.426 82.1442 11.108 82.2042 10.76L82.5822 8.654C82.7742 7.574 83.2122 6.716 83.8962 6.08C84.5922 5.432 85.4922 5.108 86.5962 5.108C87.7122 5.108 88.4682 5.366 88.8642 5.882L88.9542 5.342H91.6902L90.6822 11.012C90.6702 11.084 90.6642 11.156 90.6642 11.228ZM85.3362 10.364C85.3122 10.472 85.3002 10.622 85.3002 10.814C85.3002 11.006 85.3902 11.198 85.5702 11.39C85.7502 11.57 86.0502 11.66 86.4702 11.66C86.9022 11.66 87.2742 11.492 87.5862 11.156L88.1262 8.132C87.9942 7.832 87.6822 7.682 87.1902 7.682C86.2662 7.682 85.7262 8.126 85.5702 9.014L85.3362 10.364ZM98.8463 8.474C98.8463 7.958 98.5943 7.7 98.0903 7.7C97.5983 7.7 97.1903 7.886 96.8663 8.258L95.8583 14H92.7983L94.3283 5.342H97.1723L96.9743 6.404C97.6823 5.528 98.5763 5.09 99.6563 5.09C100.736 5.09 101.438 5.354 101.762 5.882C101.966 6.218 102.068 6.602 102.068 7.034C102.068 7.466 102.038 7.868 101.978 8.24L101.492 11.012C101.48 11.084 101.474 11.15 101.474 11.21C101.474 11.534 101.654 11.696 102.014 11.696C102.29 11.696 102.536 11.636 102.752 11.516L102.662 13.55C102.098 14.018 101.456 14.252 100.736 14.252C99.1043 14.252 98.2883 13.568 98.2883 12.2C98.2883 11.96 98.3123 11.702 98.3603 11.426L98.7923 9.032C98.8283 8.816 98.8463 8.63 98.8463 8.474ZM111.728 14.288C111.464 15.812 110.858 17.018 109.91 17.906C108.974 18.794 107.9 19.238 106.688 19.238C105.476 19.238 104.6 19.016 104.06 18.572C103.532 18.128 103.268 17.546 103.268 16.826C103.268 15.77 103.94 14.852 105.284 14.072C104.264 13.748 103.754 12.974 103.754 11.75C103.754 11.45 103.784 11.12 103.844 10.76L104.204 8.654C104.396 7.574 104.84 6.716 105.536 6.08C106.232 5.432 107.132 5.108 108.236 5.108C109.352 5.108 110.114 5.378 110.522 5.918L110.63 5.342H113.312L111.728 14.288ZM106.976 10.364C106.952 10.472 106.94 10.622 106.94 10.814C106.94 11.006 107.03 11.198 107.21 11.39C107.39 11.57 107.69 11.66 108.11 11.66C108.542 11.66 108.914 11.492 109.226 11.156L109.766 8.132C109.598 7.832 109.28 7.682 108.812 7.682C108.344 7.682 107.978 7.802 107.714 8.042C107.45 8.282 107.282 8.606 107.21 9.014L106.976 10.364ZM107.102 16.664C107.882 16.664 108.392 15.956 108.632 14.54L108.812 13.496C107.144 14.276 106.31 15.062 106.31 15.854C106.31 16.094 106.376 16.286 106.508 16.43C106.652 16.586 106.85 16.664 107.102 16.664Z" fill="#534F4B"/>
</svg>
