<svg width="18" height="23" viewBox="0 0 18 23" fill="none" xmlns="http://www.w3.org/2000/svg">
<g clip-path="url(#clip0_205_1156)">
<path d="M13.752 8.666C13.56 9.362 13.2 9.908 12.672 10.304C12.144 10.688 11.478 10.928 10.674 11.024C11.25 11.072 11.682 11.24 11.97 11.528C12.258 11.816 12.402 12.194 12.402 12.662C12.402 12.842 12.372 13.064 12.312 13.328L12.114 14.21C12.09 14.33 12.078 14.414 12.078 14.462C12.078 14.618 12.114 14.738 12.186 14.822C12.258 14.894 12.36 14.93 12.492 14.93C12.744 14.93 12.924 14.966 13.032 15.038C13.152 15.11 13.194 15.242 13.158 15.434C13.11 15.71 12.966 15.98 12.726 16.244C12.486 16.508 12.144 16.73 11.7 16.91C11.268 17.078 10.74 17.162 10.116 17.162C9.324 17.162 8.694 16.988 8.226 16.64C7.758 16.28 7.524 15.77 7.524 15.11C7.524 14.858 7.56 14.588 7.632 14.3L7.92 13.148C7.968 12.992 7.992 12.83 7.992 12.662C7.992 12.386 7.896 12.188 7.704 12.068C7.524 11.948 7.23 11.888 6.822 11.888H6.138L5.31 14.876C5.286 14.948 5.274 15.038 5.274 15.146C5.274 15.314 5.316 15.458 5.4 15.578C5.484 15.698 5.598 15.824 5.742 15.956C5.85 16.04 5.934 16.124 5.994 16.208C6.054 16.28 6.084 16.358 6.084 16.442C6.084 16.646 5.988 16.79 5.796 16.874C5.604 16.958 5.322 17 4.95 17H0.432C0.12 17 -0.114 16.946 -0.27 16.838C-0.426 16.718 -0.48 16.556 -0.432 16.352C-0.408 16.244 -0.36 16.16 -0.288 16.1C-0.228 16.028 -0.132 15.95 0 15.866C0.204 15.746 0.366 15.62 0.486 15.488C0.606 15.356 0.702 15.152 0.774 14.876L2.97 7.118C3.018 6.962 3.042 6.812 3.042 6.668C3.042 6.536 3.018 6.428 2.97 6.344C2.934 6.248 2.88 6.14 2.808 6.02C2.7 5.864 2.646 5.738 2.646 5.642C2.646 5.606 2.658 5.54 2.682 5.444C2.73 5.288 2.832 5.18 2.988 5.12C3.156 5.048 3.408 5.012 3.744 5.012H9.774C10.602 5.012 11.322 5.138 11.934 5.39C12.558 5.642 13.032 5.99 13.356 6.434C13.692 6.866 13.86 7.358 13.86 7.91C13.86 8.162 13.824 8.414 13.752 8.666ZM9.144 8.486C9.204 8.21 9.234 8 9.234 7.856C9.234 7.22 8.886 6.902 8.19 6.902H7.434L6.642 10.088H7.398C7.866 10.088 8.232 9.974 8.496 9.746C8.772 9.518 8.988 9.098 9.144 8.486ZM15.8002 13.364C16.2802 13.364 16.6822 13.526 17.0062 13.85C17.3422 14.174 17.5102 14.57 17.5102 15.038C17.5102 15.362 17.4202 15.68 17.2402 15.992C17.0722 16.304 16.8322 16.562 16.5202 16.766C16.2202 16.958 15.8782 17.054 15.4942 17.054C15.0262 17.054 14.6302 16.892 14.3062 16.568C13.9822 16.244 13.8142 15.848 13.8022 15.38C13.8022 15.056 13.8862 14.738 14.0542 14.426C14.2222 14.114 14.4562 13.862 14.7562 13.67C15.0682 13.466 15.4162 13.364 15.8002 13.364Z" fill="#534F4B"/>
</g>
<defs>
<clipPath id="clip0_205_1156">
<rect width="18" height="23" fill="white"/>
</clipPath>
</defs>
</svg>
