<svg width="50" height="50" viewBox="0 0 50 50" fill="none" xmlns="http://www.w3.org/2000/svg">
<g clip-path="url(#clip0_172_459)">
<path d="M45.1172 0H4.88281C2.18611 0 0 2.18611 0 4.88281V45.1172C0 47.8139 2.18611 50 4.88281 50H45.1172C47.8139 50 50 47.8139 50 45.1172V4.88281C50 2.18611 47.8139 0 45.1172 0Z" fill="url(#paint0_linear_172_459)"/>
<path d="M41.1562 6.5H30.5938C29.2993 6.5 28.25 7.54933 28.25 8.84375V26.0312C28.25 27.3257 29.2993 28.375 30.5938 28.375H41.1562C42.4507 28.375 43.5 27.3257 43.5 26.0312V8.84375C43.5 7.54933 42.4507 6.5 41.1562 6.5Z" fill="white"/>
<path d="M19.4062 6.5H8.84375C7.54933 6.5 6.5 7.54933 6.5 8.84375V38.5312C6.5 39.8257 7.54933 40.875 8.84375 40.875H19.4062C20.7007 40.875 21.75 39.8257 21.75 38.5312V8.84375C21.75 7.54933 20.7007 6.5 19.4062 6.5Z" fill="white"/>
</g>
<defs>
<linearGradient id="paint0_linear_172_459" x1="2500" y1="0" x2="2500" y2="5000" gradientUnits="userSpaceOnUse">
<stop stop-color="#0091E6"/>
<stop offset="1" stop-color="#0079BF"/>
</linearGradient>
<clipPath id="clip0_172_459">
<rect width="50" height="50" fill="white"/>
</clipPath>
</defs>
</svg>
