<svg width="50" height="50" viewBox="0 0 50 50" fill="none" xmlns="http://www.w3.org/2000/svg">
<g clip-path="url(#clip0_172_434)">
<path d="M48.0732 5.44378L37.8111 0.502763C37.2315 0.22373 36.5796 0.131735 35.9454 0.239508C35.3113 0.347282 34.7263 0.649494 34.2714 1.10433L0.676905 31.7346C-0.226611 32.5586 -0.225439 33.9811 0.679249 34.8037L3.42339 37.2983C3.78188 37.6242 4.24313 37.8145 4.72718 37.836C5.21122 37.8576 5.68755 37.7091 6.07358 37.4162L46.5291 6.72561C47.8863 5.69612 49.8357 6.66409 49.8357 8.36761V8.24847C49.8357 7.66247 49.6703 7.08838 49.3585 6.59222C49.0467 6.09606 48.6012 5.69799 48.0732 5.44378Z" fill="#0065A9"/>
<path d="M48.0732 44.4951L37.8111 49.4362C37.2315 49.7151 36.5796 49.8071 35.9454 49.6993C35.3113 49.5916 34.7263 49.2894 34.2714 48.8346L0.676905 18.2043C-0.226611 17.3805 -0.225439 15.9578 0.679249 15.1354L3.42339 12.6407C3.7819 12.3147 4.24316 12.1245 4.72721 12.103C5.21126 12.0815 5.68757 12.23 6.07358 12.5229L46.5291 43.2133C47.8863 44.2428 49.8357 43.2748 49.8357 41.5711V41.6905C49.8357 42.2764 49.6702 42.8505 49.3585 43.3467C49.0467 43.8428 48.6012 44.2409 48.0732 44.4951Z" fill="#007ACC"/>
<path d="M37.7788 49.4401C37.1991 49.7189 36.5471 49.8108 35.9129 49.7029C35.2787 49.595 34.6937 49.2928 34.2388 48.8379C35.3874 49.9864 37.3517 49.1729 37.3517 47.5483V2.39693C37.3517 0.772316 35.3874 -0.0411608 34.2388 1.10747C34.6937 0.652604 35.2787 0.350315 35.9128 0.242407C36.547 0.134499 37.1991 0.226305 37.7788 0.505128L48.0392 5.43931C48.5675 5.69337 49.0133 6.09146 49.3253 6.58775C49.6373 7.08404 49.8029 7.65836 49.8028 8.24458V41.701C49.8028 42.8973 49.1173 43.9879 48.0392 44.5063L37.7788 49.4401Z" fill="#1F9CF0"/>
<mask id="mask0_172_434" style="mask-type:luminance" maskUnits="userSpaceOnUse" x="0" y="0" width="50" height="50">
<path d="M35.3179 49.5321C35.7142 49.6866 36.1381 49.7579 36.5632 49.7416C36.9882 49.7253 37.4054 49.6216 37.7886 49.4372L48.0428 44.5032C48.5709 44.2489 49.0165 43.8507 49.3283 43.3544C49.6401 42.8581 49.8055 42.2838 49.8054 41.6977V8.24144C49.8055 7.65534 49.6401 7.08112 49.3283 6.58484C49.0164 6.08857 48.5708 5.69041 48.0428 5.43617L37.7888 0.501992C37.2094 0.223184 36.5577 0.131385 35.9238 0.2393C35.2899 0.347215 34.7053 0.649508 34.2508 1.10434L14.6205 19.0135L6.0697 12.5229C5.684 12.2301 5.20796 12.0816 4.7242 12.1031C4.24043 12.1246 3.77946 12.3148 3.42127 12.6407L0.678882 15.1354C-0.225414 15.9579 -0.226391 17.3805 0.676539 18.2043L8.09197 24.9696L0.676539 31.7346C-0.226391 32.5586 -0.225414 33.9811 0.678882 34.8038L3.42127 37.2983C3.77944 37.6242 4.2404 37.8144 4.72416 37.8359C5.20793 37.8575 5.68397 37.709 6.0697 37.4163L14.6205 30.9254L34.2508 48.8346C34.5543 49.1386 34.9177 49.3761 35.3179 49.5321V49.5321ZM37.3617 13.6631L22.4668 24.9696L37.3617 36.2758V13.6631V13.6631Z" fill="url(#paint0_linear_172_434)" fill-opacity="0.25"/>
</mask>
<g mask="url(#mask0_172_434)">
<path d="M35.3179 49.5319C35.7143 49.6864 36.1381 49.7577 36.5632 49.7414C36.9882 49.7251 37.4054 49.6214 37.7886 49.437L48.0426 44.5028C48.5707 44.2486 49.0163 43.8505 49.3282 43.3542C49.6401 42.8579 49.8055 42.2837 49.8054 41.6975V8.24127C49.8055 7.65516 49.6401 7.08094 49.3283 6.58467C49.0164 6.0884 48.5708 5.69024 48.0428 5.436L37.7885 0.501624C37.2091 0.222861 36.5574 0.131085 35.9235 0.239C35.2897 0.346914 34.7051 0.649181 34.2506 1.10397L14.6205 19.0133L6.0697 12.5227C5.684 12.2299 5.20796 12.0814 4.7242 12.1029C4.24043 12.1244 3.77946 12.3146 3.42127 12.6405L0.678882 15.1352C-0.225414 15.9577 -0.226391 17.3803 0.676539 18.2042L8.09197 24.9694L0.676539 31.7344C-0.226391 32.5585 -0.225414 33.9809 0.678882 34.8036L3.42127 37.2981C3.77944 37.624 4.2404 37.8142 4.72416 37.8358C5.20793 37.8573 5.68397 37.7088 6.0697 37.4161L14.6205 30.9253L34.2506 48.8344C34.5541 49.1384 34.9176 49.376 35.3179 49.5319ZM37.3617 13.6628L22.4668 24.9694L37.3617 36.2756V13.6628Z" fill="url(#paint1_linear_172_434)" fill-opacity="0.25"/>
</g>
</g>
<defs>
<linearGradient id="paint0_linear_172_434" x1="2490.27" y1="0.195312" x2="2490.27" y2="4955.05" gradientUnits="userSpaceOnUse">
<stop stop-color="white"/>
<stop offset="1" stop-color="white" stop-opacity="0"/>
</linearGradient>
<linearGradient id="paint1_linear_172_434" x1="2490.27" y1="0.195007" x2="2490.27" y2="4955.06" gradientUnits="userSpaceOnUse">
<stop stop-color="white"/>
<stop offset="1" stop-color="white" stop-opacity="0"/>
</linearGradient>
<clipPath id="clip0_172_434">
<rect width="50" height="50" fill="white"/>
</clipPath>
</defs>
</svg>
