<svg width="50" height="50" viewBox="0 0 50 50" fill="none" xmlns="http://www.w3.org/2000/svg">
<g clip-path="url(#clip0_172_454)">
<path d="M3.14297 2.1526L32.0488 0.113421C35.5994 -0.177624 36.5117 0.0186445 38.7441 1.56883L47.9713 7.77816C49.4934 8.84588 50 9.13711 50 10.2998V44.3533C50 46.4875 49.1885 47.7498 46.3484 47.9429L12.7813 49.8839C10.6498 49.9804 9.63477 49.6894 8.51856 48.3304L1.72383 39.8907C0.505078 38.3371 0 37.1742 0 35.8153V5.54588C0 3.80111 0.811523 2.3457 3.14297 2.1526Z" fill="white"/>
<path d="M32.0488 0.113421L3.14297 2.1526C0.811523 2.3457 0 3.80111 0 5.54588V35.8155C0 37.1744 0.504883 38.3371 1.72383 39.8907L8.51856 48.3304C9.63477 49.6894 10.6498 49.9804 12.7813 49.8839L46.3484 47.9429C49.1867 47.7498 50 46.4875 50 44.3533V10.2998C50 9.197 49.5437 8.87928 48.2012 7.93786L47.9697 7.77816L38.7441 1.56883C36.5117 0.0186445 35.5996 -0.177624 32.0488 0.113421ZM13.5404 9.74253C10.7996 9.91883 10.1779 9.95876 8.62129 8.74943L4.66328 5.74215C4.26094 5.35297 4.46289 4.86715 5.47637 4.7707L33.2643 2.83133C35.5977 2.63674 36.8131 3.41342 37.7256 4.09215L42.4914 7.39066C42.6951 7.48861 43.202 8.0692 42.5924 8.0692L13.8957 9.7192L13.5404 9.74253ZM10.3451 44.0623V15.1533C10.3451 13.8908 10.7508 13.3088 11.9662 13.2106L44.9258 11.3675C46.0438 11.2711 46.5488 11.9496 46.5488 13.2106V41.9265C46.5488 43.189 46.3449 44.2567 44.5201 44.3533L12.9797 46.0998C11.1549 46.1963 10.3451 45.6158 10.3451 44.0623ZM41.4799 16.7033C41.6818 17.5767 41.4799 18.45 40.5656 18.5498L39.0455 18.8375V40.1815C37.7256 40.8601 36.5102 41.2477 35.4947 41.2477C33.8721 41.2477 33.4662 40.7619 32.2508 39.3082L22.3098 24.3681V38.8226L25.4543 39.5028C25.4543 39.5028 25.4543 41.2494 22.9174 41.2494L15.9225 41.6369C15.7188 41.2477 15.9225 40.278 16.6314 40.0851L18.4578 39.6009V20.4894L15.9227 20.2931C15.7188 19.4199 16.2254 18.1589 17.6465 18.0608L25.1516 17.5785L35.4949 32.7116V19.3235L32.8586 19.0339C32.6549 17.9644 33.4662 17.1877 34.4797 17.0929L41.4797 16.7035L41.4799 16.7033Z" fill="black"/>
</g>
<defs>
<clipPath id="clip0_172_454">
<rect width="50" height="50" fill="white"/>
</clipPath>
</defs>
</svg>
