<svg width="50" height="50" viewBox="0 0 50 50" fill="none" xmlns="http://www.w3.org/2000/svg">
<g clip-path="url(#clip0_170_306)">
<path d="M38.2812 3.05176e-05H11.7188C5.24666 3.05176e-05 0 5.24669 0 11.7188V38.2813C0 44.7534 5.24666 50 11.7188 50H38.2812C44.7533 50 50 44.7534 50 38.2813V11.7188C50 5.24669 44.7533 3.05176e-05 38.2812 3.05176e-05Z" fill="#00005B"/>
<path d="M20.0865 29.8666H12.3382L10.7617 34.8908C10.7414 34.9769 10.6942 35.0538 10.6271 35.1097C10.56 35.1656 10.4768 35.1974 10.3904 35.2002L6.4349 35.2C6.21107 35.2 6.13275 35.074 6.20013 34.822L12.9085 15.1202L12.9755 14.9132L12.9978 14.8424L13.0427 14.6944C13.065 14.618 13.0872 14.537 13.1097 14.4492C13.1976 13.991 13.2425 13.5252 13.2439 13.0582C13.2393 13.0255 13.2423 12.9923 13.2525 12.961C13.2627 12.9297 13.2799 12.9013 13.3026 12.8779C13.3254 12.8546 13.3532 12.837 13.3837 12.8266C13.4143 12.8162 13.4468 12.8131 13.4786 12.8178H18.8119C18.9681 12.8178 19.0574 12.875 19.0802 12.9896L26.6941 34.8566C26.7611 35.0856 26.6941 35.2002 26.4929 35.2H22.1324C22.0575 35.2085 21.9821 35.1888 21.9204 35.1445C21.8587 35.1003 21.8148 35.0345 21.797 34.9596L20.0865 29.8666ZM13.5458 25.6304H18.8454L18.7699 25.375L18.6486 24.9706L18.471 24.3914L18.1302 23.298L17.8056 22.2472L17.2017 20.2894C17.0348 19.749 16.8747 19.2064 16.7212 18.6618L16.5497 18.0426L16.3646 17.364L16.1954 16.7346H16.1619C15.9941 17.559 15.7897 18.3752 15.5494 19.1806L15.3228 19.9252L14.7779 21.7252L14.5017 22.6422C14.4517 22.8078 14.4021 22.9716 14.3523 23.1334L14.2038 23.613L14.0562 24.0814L13.9093 24.5382L13.7632 24.9836C13.6906 25.2036 13.6179 25.419 13.5458 25.6304ZM39.0376 27.9112H32.43C32.511 28.5806 32.7281 29.2252 33.0673 29.8034C33.4424 30.376 33.9728 30.8237 34.5933 31.0914C35.4343 31.464 36.3438 31.6466 37.2599 31.6266C37.9867 31.6123 38.7108 31.5309 39.4234 31.3834C40.0606 31.2953 40.6852 31.1286 41.2833 30.887C41.3951 30.7958 41.4513 30.8526 41.4513 31.0586V34.3216C41.4568 34.4106 41.4394 34.4994 41.4007 34.5792C41.3624 34.6416 41.3109 34.6944 41.2499 34.7338C40.5864 35.0348 39.888 35.2478 39.1718 35.3678C38.1988 35.5549 37.2099 35.6411 36.2201 35.6252C34.6818 35.6252 33.3851 35.3888 32.33 34.9162L32.2285 34.8696C31.2142 34.412 30.3184 33.7181 29.6124 32.8432C28.953 32.0188 28.4624 31.0668 28.1701 30.044C27.8807 29.0345 27.734 27.9877 27.7343 26.9356C27.7313 25.7868 27.9068 24.6447 28.2542 23.5524C28.5889 22.4869 29.1181 21.4962 29.8138 20.633C30.5 19.7798 31.3581 19.0885 32.3294 18.6064C33.3132 18.1144 34.4761 17.9378 35.8177 17.9378C36.9304 17.909 38.0356 18.1318 39.0546 18.5904C39.9114 18.9646 40.6656 19.5479 41.2515 20.2894C41.801 21.0155 42.2211 21.8352 42.4925 22.7108C42.7568 23.5546 42.8926 24.4351 42.8951 25.3212C42.8951 25.8252 42.8783 26.2832 42.8449 26.6952L42.815 27.048L42.7837 27.3828L42.7652 27.5524C42.7638 27.5643 42.7623 27.5763 42.7609 27.5882C42.7522 27.6639 42.7166 27.7337 42.661 27.7843C42.6054 27.835 42.5336 27.863 42.4591 27.863L42.3671 27.865L42.2525 27.871L42.1632 27.8776L41.9546 27.8958L41.7714 27.9144C41.7216 27.9198 41.6699 27.9248 41.6161 27.9294L41.4499 27.9428L41.2724 27.9548L41.0839 27.9648L40.8843 27.9734L40.7802 27.977L40.564 27.983C40.3501 27.9884 40.131 27.9748 39.9062 27.958L39.5652 27.9324C39.3897 27.9192 39.2136 27.9121 39.0376 27.9112ZM32.43 24.7822H36.9976L37.3867 24.7796L37.6511 24.7758L37.8224 24.7718L38.0146 24.765C38.1866 24.7474 38.3527 24.691 38.5009 24.6V24.394C38.4942 24.1254 38.4491 23.8592 38.3669 23.604C38.186 23.018 37.8222 22.509 37.3313 22.1553C36.8405 21.8016 36.2499 21.6226 35.6501 21.646C35.0856 21.611 34.5234 21.7451 34.032 22.0317C33.5406 22.3184 33.1413 22.7453 32.8828 23.2604C32.653 23.7395 32.5001 24.2532 32.43 24.7822Z" fill="#9999FF"/>
</g>
<defs>
<clipPath id="clip0_170_306">
<rect width="50" height="50" fill="white"/>
</clipPath>
</defs>
</svg>
