<svg width="50" height="50" viewBox="0 0 50 50" fill="none" xmlns="http://www.w3.org/2000/svg">
<path d="M42.5 0H7.5C5.51149 0.00198554 3.60498 0.7928 2.19889 2.19889C0.7928 3.60498 0.00198554 5.51149 0 7.5V42.5C0.00198554 44.4885 0.7928 46.395 2.19889 47.8011C3.60498 49.2072 5.51149 49.998 7.5 50H42.5C44.4885 49.998 46.395 49.2072 47.8011 47.8011C49.2072 46.395 49.998 44.4885 50 42.5V7.5C49.998 5.51149 49.2072 3.60498 47.8011 2.19889C46.395 0.7928 44.4885 0.00198554 42.5 0V0ZM37.5 15C33.35 15 30.36 20.4425 27.19 26.205C23.46 32.9875 19.6025 40 12.5 40C11.837 40 11.2011 39.7366 10.7322 39.2678C10.2634 38.7989 10 38.163 10 37.5C10 36.837 10.2634 36.2011 10.7322 35.7322C11.2011 35.2634 11.837 35 12.5 35C16.65 35 19.64 29.5575 22.81 23.795C26.54 17.0125 30.3975 10 37.5 10C38.163 10 38.7989 10.2634 39.2678 10.7322C39.7366 11.2011 40 11.837 40 12.5C40 13.163 39.7366 13.7989 39.2678 14.2678C38.7989 14.7366 38.163 15 37.5 15Z" fill="#1EDDB5"/>
</svg>
