<svg width="50" height="50" viewBox="0 0 50 50" fill="none" xmlns="http://www.w3.org/2000/svg">
<g clip-path="url(#clip0_170_310)">
<path d="M38.2812 0H11.7188C5.24666 0 0 5.24666 0 11.7188V38.2812C0 44.7533 5.24666 50 11.7188 50H38.2812C44.7533 50 50 44.7533 50 38.2812V11.7188C50 5.24666 44.7533 0 38.2812 0Z" fill="#00005B"/>
<path d="M10.5469 35.6797V14.2213C10.5469 14.0756 10.6094 13.9922 10.7553 13.9922C11.1094 13.9922 11.4428 13.9922 11.9219 13.9713C12.4219 13.9506 12.9428 13.9506 13.5053 13.9297C14.0678 13.9088 14.6719 13.9088 15.3178 13.8881C15.9635 13.8672 16.5885 13.8672 17.2135 13.8672C18.9219 13.8672 20.3385 14.0756 21.5053 14.5131C22.5511 14.8682 23.5047 15.4517 24.2969 16.2213C24.9682 16.8948 25.4868 17.7048 25.8178 18.5963C26.1303 19.4713 26.2969 20.3672 26.2969 21.3047C26.2969 23.0963 25.8803 24.5756 25.0469 25.7422C24.2135 26.9088 23.0469 27.7838 21.6928 28.2838C20.276 28.8047 18.7135 28.9922 17.0053 28.9922C16.5053 28.9922 16.1719 28.9922 15.9635 28.9713C15.7553 28.9506 15.4635 28.9506 15.0678 28.9506V35.6381C15.0885 35.7838 14.9844 35.9088 14.8385 35.9297H10.7969C10.6303 35.9297 10.5469 35.8463 10.5469 35.6588V35.6797ZM15.0885 18.0338V25.0338C15.3803 25.0547 15.651 25.0756 15.901 25.0756H17.0053C17.8178 25.0756 18.6303 24.9506 19.401 24.7006C20.0678 24.5131 20.651 24.1172 21.1094 23.5963C21.5469 23.0756 21.7553 22.3672 21.7553 21.4506C21.7748 20.7995 21.6086 20.1563 21.276 19.5963C20.9219 19.0547 20.4219 18.6381 19.8178 18.4088C19.0469 18.0963 18.2135 17.9713 17.3594 17.9922C16.8178 17.9922 16.3385 17.9922 15.9428 18.0131C15.526 17.9922 15.2344 18.0131 15.0885 18.0338ZM29.2969 19.2631H32.9428C33.1512 19.2631 33.3178 19.4088 33.3803 19.5963C33.4428 19.7631 33.4844 19.9297 33.5053 20.1172C33.5469 20.3256 33.5887 20.5547 33.6094 20.7631C33.6303 20.9922 33.6512 21.2422 33.6512 21.5131C34.2767 20.7828 35.0326 20.1752 35.8803 19.7213C36.8387 19.1797 37.9428 18.9088 39.0469 18.9088C39.1928 18.8881 39.3178 18.9922 39.3387 19.1381V23.2838C39.3387 23.4506 39.2344 23.5131 39.0053 23.5131C38.2553 23.4922 37.4844 23.5547 36.7553 23.7213C36.1512 23.8463 35.5678 24.0338 35.0053 24.2838C34.6094 24.4713 34.2344 24.7213 33.9428 25.0547V35.6797C33.9428 35.8881 33.8594 35.9713 33.6719 35.9713H29.5678C29.4012 35.9922 29.2553 35.8881 29.2344 35.7213V24.0963C29.2344 23.5963 29.2344 23.0756 29.2137 22.5338C29.1928 21.9922 29.1928 21.4506 29.1719 20.9088C29.1719 20.4297 29.1303 19.9713 29.0887 19.4922C29.0678 19.3881 29.1303 19.2838 29.2344 19.2631C29.2344 19.2422 29.2762 19.2422 29.2969 19.2631Z" fill="#9999FF"/>
</g>
<defs>
<clipPath id="clip0_170_310">
<rect width="50" height="50" fill="white"/>
</clipPath>
</defs>
</svg>
