<svg width="50" height="50" viewBox="0 0 50 50" fill="none" xmlns="http://www.w3.org/2000/svg">
<g clip-path="url(#clip0_172_426)">
<path d="M38.2812 0H11.7188C5.24666 0 0 5.24666 0 11.7188V38.2812C0 44.7533 5.24666 50 11.7188 50H38.2812C44.7533 50 50 44.7533 50 38.2812V11.7188C50 5.24666 44.7533 0 38.2812 0Z" fill="#00005B"/>
<path d="M20.1744 30.6964H12.4263L10.8349 35.5857C10.8147 35.6697 10.7674 35.7448 10.7003 35.7993C10.6333 35.8539 10.5502 35.8849 10.4638 35.8876H6.50814C6.28431 35.8876 6.20599 35.7646 6.27337 35.5185L13.0097 16.2958L13.099 16.0316C13.1363 15.9196 13.1736 15.8007 13.2109 15.6577C13.2988 15.2103 13.3437 14.7554 13.3451 14.2993C13.3405 14.2674 13.3435 14.2349 13.3537 14.2044C13.3639 14.1738 13.381 14.1461 13.4038 14.1233C13.4266 14.1005 13.4543 14.0834 13.4849 14.0732C13.5154 14.063 13.5479 14.06 13.5798 14.0646H18.9128C19.0691 14.0646 19.1585 14.1204 19.1812 14.2323L26.7671 35.5521C26.8343 35.7757 26.7671 35.8876 26.566 35.8874H22.2056C22.1307 35.8958 22.0553 35.8766 21.9935 35.8333C21.9318 35.7901 21.8879 35.7259 21.8701 35.6527L20.1744 30.6964ZM13.647 26.5595H18.9464L18.871 26.3101L18.7495 25.9152L18.5722 25.3495L18.2314 24.2818L17.3029 21.3437C17.136 20.8159 16.9758 20.286 16.8224 19.7542L16.6509 19.1495L16.5103 18.6482L16.3374 18.0212L16.2966 17.8722H16.2632C16.0953 18.6773 15.8909 19.4743 15.6505 20.2609L15.424 20.988L14.879 22.7458L14.5281 23.8825L14.379 24.3566L14.231 24.8194L14.0837 25.2712C13.9421 25.702 13.7966 26.1314 13.647 26.5595ZM29.1152 35.5683V23.2052C29.1152 23.1208 29.1152 23.0341 29.1144 22.9454L29.112 22.672L29.1079 22.3855L29.0986 21.9308L29.0874 21.5337C29.0814 21.342 29.0742 21.1503 29.066 20.9587L29.0484 20.589L29.023 20.1304L29.0019 19.7944L28.9894 19.623L28.9812 19.5237C28.9682 19.4903 28.9644 19.454 28.9703 19.4186C28.9761 19.3832 28.9914 19.35 29.0146 19.3226C29.042 19.2986 29.0739 19.2803 29.1085 19.2688C29.1431 19.2573 29.1796 19.2528 29.216 19.2556H32.5642C32.6797 19.2518 32.7946 19.2747 32.8997 19.3226C32.9902 19.3693 33.0525 19.4568 33.0673 19.5573L33.2183 20.0103C33.2801 20.2322 33.3194 20.4598 33.3357 20.6896C33.9842 20.1215 34.7357 19.6832 35.5494 19.3984C36.3584 19.1183 37.2088 18.9765 38.065 18.979C38.7317 18.9821 39.3938 19.0897 40.0273 19.2978C40.7585 19.5316 41.4254 19.932 41.9755 20.4675C42.5256 21.003 42.9437 21.659 43.197 22.3837C43.5324 23.2446 43.6638 24.3571 43.6638 25.7208V35.5683C43.6638 35.7694 43.5744 35.87 43.3954 35.87L39.4765 35.9048C39.4309 35.9114 39.3844 35.9072 39.3408 35.8927C39.2971 35.8782 39.2574 35.8537 39.2248 35.8211C39.1922 35.7886 39.1677 35.7489 39.1531 35.7052C39.1386 35.6615 39.1344 35.615 39.141 35.5695V26.2265C39.1301 25.6008 38.9924 24.9837 38.7361 24.4128C38.5562 23.9916 38.2593 23.6307 37.8806 23.373C37.4527 23.1111 36.9564 22.9826 36.4552 23.004C35.9161 22.9962 35.381 23.0933 34.8788 23.2892C34.4198 23.4725 33.9989 23.7397 33.6378 24.0773V35.5683C33.6378 35.7694 33.5484 35.87 33.3695 35.87H29.4173C29.3763 35.8759 29.3345 35.8722 29.2952 35.8591C29.2559 35.846 29.2202 35.8239 29.1909 35.7946C29.1616 35.7654 29.1395 35.7297 29.1264 35.6904C29.1133 35.6511 29.1095 35.6093 29.1154 35.5683H29.1152Z" fill="#9999FF"/>
</g>
<defs>
<clipPath id="clip0_172_426">
<rect width="50" height="50" fill="white"/>
</clipPath>
</defs>
</svg>
