<svg width="50" height="50" viewBox="0 0 50 50" fill="none" xmlns="http://www.w3.org/2000/svg">
<g clip-path="url(#clip0_170_286)">
<path d="M38.2812 0H11.7188C5.24666 0 0 5.24666 0 11.7188V38.2812C0 44.7533 5.24666 50 11.7188 50H38.2812C44.7533 50 50 44.7533 50 38.2812V11.7188C50 5.24666 44.7533 0 38.2812 0Z" fill="#001E36"/>
<path d="M11.25 34.7734V13.3359C11.25 13.19 11.3125 13.1068 11.4584 13.1068C11.8125 13.1068 12.1459 13.1068 12.625 13.0859C13.125 13.065 13.6459 13.065 14.2084 13.0443C14.7709 13.0234 15.375 13.0234 16.0209 13.0025C16.6666 12.9818 17.2916 12.9818 17.9166 12.9818C19.625 12.9818 21.0416 13.19 22.2084 13.6275C23.2542 13.9827 24.2078 14.5663 25 15.3359C25.6713 16.0095 26.19 16.8194 26.5209 17.7109C26.8334 18.5859 27 19.4818 27 20.4193C27 22.2109 26.5834 23.69 25.75 24.8568C24.9166 26.0234 23.75 26.8984 22.3959 27.3984C20.9791 27.9193 19.4166 28.1068 17.7084 28.1068C17.2084 28.1068 16.875 28.1068 16.6666 28.0859C16.4584 28.065 16.1666 28.065 15.7709 28.065V34.7525C15.7916 34.8984 15.6875 35.0234 15.5416 35.0443H11.5C11.3334 35.0443 11.25 34.9609 11.25 34.7734ZM15.7916 17.1275V24.1275C16.0834 24.1484 16.3541 24.1693 16.6041 24.1693H17.7084C18.5209 24.1693 19.3334 24.0443 20.1041 23.7943C20.7709 23.6068 21.3541 23.2109 21.8125 22.69C22.25 22.1693 22.4584 21.4609 22.4584 20.5443C22.478 19.8933 22.3117 19.2501 21.9791 18.69C21.625 18.1484 21.125 17.7318 20.5209 17.5025C19.75 17.19 18.9166 17.065 18.0625 17.0859C17.5209 17.0859 17.0416 17.0859 16.6459 17.1068C16.2291 17.0859 15.9375 17.1068 15.7916 17.1275ZM40 22.8568C39.375 22.5234 38.7084 22.2943 38 22.1484C37.2291 21.9818 36.4584 21.8775 35.6666 21.8775C35.25 21.8568 34.8125 21.9193 34.4166 22.0234C34.1459 22.0859 33.9166 22.2318 33.7709 22.44C33.6666 22.6068 33.6041 22.815 33.6041 23.0025C33.6041 23.19 33.6875 23.3775 33.8125 23.5443C34 23.7734 34.25 23.9609 34.5209 24.1068C35.0039 24.357 35.4974 24.5864 36 24.7943C37.125 25.1693 38.2084 25.69 39.2084 26.315C39.8959 26.7525 40.4584 27.3359 40.8541 28.0443C41.1875 28.7109 41.3541 29.44 41.3334 30.19C41.3541 31.1693 41.0625 32.1484 40.5209 32.9609C39.9398 33.7926 39.1289 34.4369 38.1875 34.815C37.1666 35.2525 35.9166 35.4818 34.4166 35.4818C33.4584 35.4818 32.5209 35.3984 31.5834 35.2109C30.8486 35.084 30.134 34.8599 29.4584 34.5443C29.3125 34.4609 29.2084 34.315 29.2291 34.1484V30.5234C29.2291 30.4609 29.25 30.3775 29.3125 30.3359C29.375 30.2943 29.4375 30.315 29.5 30.3568C30.3125 30.8359 31.1666 31.1693 32.0834 31.3775C32.875 31.5859 33.7084 31.69 34.5416 31.69C35.3334 31.69 35.8959 31.5859 36.2709 31.3984C36.6041 31.2525 36.8334 30.8984 36.8334 30.5234C36.8334 30.2318 36.6666 29.9609 36.3334 29.69C36 29.4193 35.3125 29.1068 34.2916 28.7109C33.2444 28.3419 32.2499 27.8377 31.3334 27.2109C30.6806 26.7456 30.1397 26.1407 29.75 25.44C29.4166 24.7734 29.25 24.0443 29.2709 23.315C29.2709 22.4193 29.5209 21.565 29.9791 20.7943C30.5 19.9609 31.2709 19.2943 32.1666 18.8775C33.1459 18.3775 34.375 18.1484 35.8541 18.1484C36.7084 18.1484 37.5834 18.2109 38.4375 18.3359C39.0625 18.4193 39.6666 18.5859 40.2291 18.815C40.3125 18.8359 40.3959 18.9193 40.4375 19.0025C40.4584 19.0859 40.4791 19.1693 40.4791 19.2525V22.6484C40.4791 22.7318 40.4375 22.815 40.375 22.8568C40.1875 22.8984 40.0834 22.8984 40 22.8568Z" fill="#31A8FF"/>
</g>
<defs>
<clipPath id="clip0_170_286">
<rect width="50" height="50" fill="white"/>
</clipPath>
</defs>
</svg>
