<svg width="50" height="50" viewBox="0 0 50 50" fill="none" xmlns="http://www.w3.org/2000/svg">
<g clip-path="url(#clip0_170_302)">
<path d="M38.2812 0H11.7188C5.24666 0 0 5.24666 0 11.7188V38.2812C0 44.7533 5.24666 50 11.7188 50H38.2812C44.7533 50 50 44.7533 50 38.2812V11.7188C50 5.24666 44.7533 0 38.2812 0Z" fill="#330000"/>
<path d="M24.1664 29.7525H16.4164L14.833 34.6484C14.7914 34.8359 14.6248 34.9609 14.4373 34.94H10.5205C10.2914 34.94 10.2289 34.815 10.2914 34.565L16.9998 15.2525C17.0623 15.0443 17.1248 14.815 17.208 14.565C17.2914 14.1275 17.333 13.6693 17.333 13.2109C17.3123 13.1068 17.3955 13.0025 17.4998 12.9818H22.8955C23.0623 12.9818 23.1455 13.0443 23.1664 13.1484L30.7705 34.6068C30.833 34.8359 30.7705 34.94 30.5623 34.94H26.208C26.0623 34.9609 25.9164 34.8568 25.8748 34.7109L24.1664 29.7525ZM17.6248 25.5234H22.9164C22.7914 25.0859 22.6248 24.565 22.4373 24.0234C22.2498 23.4609 22.0623 22.8568 21.8748 22.2318C21.6664 21.5859 21.4789 20.9609 21.2705 20.315C21.0623 19.6693 20.8748 19.065 20.708 18.4609C20.5414 17.8777 20.3955 17.3359 20.2498 16.8359H20.208C20.0205 17.7318 19.7914 18.6277 19.4998 19.5234C19.1873 20.5234 18.8748 21.565 18.5414 22.6068C18.2723 23.5901 17.9666 24.563 17.6248 25.5234ZM35.4164 16.6275C34.7289 16.6484 34.0623 16.3775 33.5623 15.8984C33.0832 15.3775 32.8332 14.69 32.8539 13.9818C32.8332 13.2734 33.1039 12.6068 33.6039 12.1275C34.1039 11.6484 34.7707 11.3984 35.4582 11.3984C36.2707 11.3984 36.8957 11.6484 37.3539 12.1275C37.8156 12.6326 38.0622 13.2978 38.0414 13.9818C38.0623 14.69 37.8123 15.3775 37.3123 15.8984C36.8332 16.3984 36.1248 16.6693 35.4164 16.6275ZM33.0832 34.7109V18.6693C33.0832 18.4609 33.1664 18.3775 33.3539 18.3775H37.4789C37.6664 18.3775 37.7498 18.4818 37.7498 18.6693V34.7109C37.7498 34.94 37.6664 35.0443 37.4789 35.0443H33.3957C33.1873 35.0443 33.0832 34.9193 33.0832 34.7109Z" fill="#FF9A00"/>
</g>
<defs>
<clipPath id="clip0_170_302">
<rect width="50" height="50" fill="white"/>
</clipPath>
</defs>
</svg>
