<svg width="50" height="50" viewBox="0 0 50 50" fill="none" xmlns="http://www.w3.org/2000/svg">
<g clip-path="url(#clip0_170_290)">
<path d="M38.2812 0H11.7188C5.24666 0 0 5.24666 0 11.7188V38.2812C0 44.7533 5.24666 50 11.7188 50H38.2812C44.7533 50 50 44.7533 50 38.2812V11.7188C50 5.24666 44.7533 0 38.2812 0Z" fill="#242938"/>
<mask id="mask0_170_290" style="mask-type:luminance" maskUnits="userSpaceOnUse" x="11" y="5" width="27" height="40">
<path d="M11.9141 5.46875H37.9609V44.5312H11.9141V5.46875Z" fill="white"/>
</mask>
<g mask="url(#mask0_170_290)">
<path d="M18.4271 44.5312C22.0208 44.5312 24.9374 41.6146 24.9374 38.0209V31.5103H18.4271C14.8333 31.5103 11.9165 34.4271 11.9165 38.0209C11.9165 41.6146 14.8333 44.5312 18.4271 44.5312Z" fill="#0ACF83"/>
<path d="M11.9165 25C11.9165 21.4063 14.8333 18.4897 18.4271 18.4897H24.9374V31.5104H18.4271C14.8333 31.5104 11.9165 28.5938 11.9165 25Z" fill="#A259FF"/>
<path d="M11.9165 11.9791C11.9165 8.38535 14.8333 5.46875 18.4271 5.46875H24.9374V18.4896H18.4271C14.8333 18.4896 11.9165 15.5729 11.9165 11.9791Z" fill="#F24E1E"/>
<path d="M24.9375 5.46875H31.4479C35.0416 5.46875 37.9584 8.38535 37.9584 11.9791C37.9584 15.5729 35.0416 18.4896 31.4479 18.4896H24.9375V5.46875Z" fill="#FF7262"/>
<path d="M37.9584 25C37.9584 28.5938 35.0416 31.5104 31.4479 31.5104C27.8541 31.5104 24.9375 28.5938 24.9375 25C24.9375 21.4063 27.8541 18.4897 31.4479 18.4897C35.0416 18.4897 37.9584 21.4063 37.9584 25Z" fill="#1ABCFE"/>
</g>
</g>
<defs>
<clipPath id="clip0_170_290">
<rect width="50" height="50" fill="white"/>
</clipPath>
</defs>
</svg>
